<svg xmlns="http://www.w3.org/2000/svg" xmlns:xlink="http://www.w3.org/1999/xlink" viewBox="0 0 230.47 256.13"><defs><style>.cls-1{fill:none;}.cls-2{clip-path:url(#clip-path);}.cls-3{fill:#1e303f;}.cls-4{fill:#223749;}.cls-5{fill:#fff;}</style><clipPath id="clip-path"><rect class="cls-1" x="12.67" y="37.54" width="200" height="200"/></clipPath></defs><title>mypass</title><g id="Layer_2" data-name="Layer 2"><g id="Layer_2-2" data-name="Layer 2"><g class="cls-2"><rect class="cls-3" x="12.67" y="37.54" width="200" height="200"/><path class="cls-4" d="M189.7,31.63a6,6,0,0,1-2.95-.77c-24.59-12.68-45.85-18.06-71.33-18.06A146.51,146.51,0,0,0,44.09,30.86a6.42,6.42,0,0,1-6.15-11.27A160.8,160.8,0,0,1,115.43,0c27.28,0,51.1,6,77.22,19.47A6.27,6.27,0,0,1,195.34,28,6.28,6.28,0,0,1,189.7,31.63ZM6.44,98.86a6.67,6.67,0,0,1-3.71-1.15,6.39,6.39,0,0,1-1.54-9,132.4,132.4,0,0,1,48-41.88c40.21-20.75,91.69-20.87,132-.13a132.91,132.91,0,0,1,48,41.62,6.43,6.43,0,0,1-10.5,7.43,120.22,120.22,0,0,0-43.41-37.65C138.6,39.32,91.61,39.32,55,58.27A121.49,121.49,0,0,0,11.44,96.18,5.58,5.58,0,0,1,6.44,98.86Zm80,154.57A6,6,0,0,1,82,251.52c-11.14-11.14-17.16-18.31-25.74-33.81-8.84-15.75-13.45-35-13.45-55.58,0-38,32.53-69,72.48-69s72.48,31,72.48,69a6.4,6.4,0,1,1-12.81,0c0-31-26.77-56.22-59.68-56.22s-59.68,25.23-59.68,56.22c0,18.44,4.1,35.47,11.91,49.3,8.2,14.73,13.83,21,23.69,31a6.58,6.58,0,0,1,0,9.09A7,7,0,0,1,86.48,253.44Zm91.82-23.69c-15.24,0-28.69-3.84-39.7-11.4-19.08-12.93-30.48-33.94-30.48-56.22a6.4,6.4,0,0,1,12.81,0c0,18.06,9.22,35.09,24.84,45.59,9.09,6.15,19.72,9.09,32.53,9.09a84.63,84.63,0,0,0,13.32-1.28,6.43,6.43,0,1,1,2.18,12.68A87.45,87.45,0,0,1,178.3,229.74Zm-25.74,26.38a7.49,7.49,0,0,1-1.66-.26c-20.36-5.63-33.68-13.19-47.64-26.89a93.44,93.44,0,0,1-27.79-66.85c0-20.75,17.67-37.65,39.44-37.65s39.44,16.9,39.44,37.65c0,13.7,11.91,24.84,26.64,24.84s26.64-11.14,26.64-24.84c0-48.28-41.62-87.47-92.85-87.47-36.37,0-69.67,20.23-84.65,51.61-5,10.37-7.56,22.54-7.56,35.86a127.26,127.26,0,0,0,8.58,46.23,6.25,6.25,0,0,1-3.71,8.2,6.35,6.35,0,0,1-8.2-3.71A142.67,142.67,0,0,1,9.9,162.13c0-15.37,2.95-29.33,8.71-41.49,17-35.73,54.81-58.91,96.18-58.91,58.27,0,105.65,45,105.65,100.27,0,20.75-17.67,37.65-39.44,37.65s-39.44-16.9-39.44-37.65c0-13.7-11.91-24.84-26.64-24.84S88.28,148.3,88.28,162a80.65,80.65,0,0,0,23.95,57.76c12.17,12,23.82,18.7,41.88,23.69a6.36,6.36,0,0,1,4.48,7.81A6.25,6.25,0,0,1,152.56,256.13Z"/><rect class="cls-1" x="12.67" y="37.54" width="200" height="200"/><path class="cls-5" d="M88.25,90,112.67,159,136.95,90h25.72v95H143v-26l2-44.84-25.65,70.82H105.88L80.29,114.3l2,44.78v26H62.67V90Z"/></g></g></g></svg>